<?xml version="1.0" standalone="no"?><!DOCTYPE svg PUBLIC "-//W3C//DTD SVG 1.1//EN" "http://www.w3.org/Graphics/SVG/1.1/DTD/svg11.dtd"><svg t="1745712945717" class="icon" viewBox="0 0 1024 1024" version="1.1" xmlns="http://www.w3.org/2000/svg" p-id="6934" xmlns:xlink="http://www.w3.org/1999/xlink" width="128" height="128"><path d="M905.55285 335.594797c-31.633961 2.134801-63.212632 4.355608-93.853424 13.886957-47.01579 14.619035-69.294511 48.827043-61.633801 95.781401 4.03718 24.766762 10.818372 49.064585 10.648407 74.557281-0.354264 66.604764-32.458189 114.114067-92.568448 145.456221-9.707457 5.085638-19.825492 9.44739-29.766394 14.008799-29.121346 13.332011-51.981634 33.653063-68.764139 59.616747-33.097093 51.045803-80.405715 79.728926-142.332347 87.474619-23.682468 2.982578-28.122034 9.501656-25.08519 31.958532 5.379493 39.555762 5.325228 39.616171 47.192922 44.061882 17.833011 1.898283 35.84213 2.892476 53.034188 8.393811 4.738541 1.516374 9.300974 3.652199 13.685252 5.987682 2.28224 1.232758 4.849121 3.483258 3.445374 6.465836-1.401699 3.128994-4.676084 2.134801-7.243989 1.463132-32.689587-8.923161-64.854944-2.574048-97.013134 3.330699-37.135297 6.872318-40.111731 4.621818-39.763611-32.805286 0.701361-16.021758-3.622506-33.245556-7.775385-50.406899-3.861072-15.813909-16.899227-23.504312-31.055466-29.793015-38.940407-17.308781-76.485258-36.660214-107.710688-65.780536-46.308285-43.246868-76.777065-93.507351-76.777065-157.215544 0-56.279905 20.290335-105.659846 59.938247-146.827204 57.658054-59.908554 130.929336-90.956853 214.018654-103.062249 46.838658-6.811909 92.628858-4.238885 137.361383 11.312909 12.631673 4.384277 24.030589 10.965812 35.081383 18.272258 12.752492 8.48289 16.900251 6.64092 20.413202-7.714976 6.135121-25.376998 17.070216-48.509639 36.25066-67.367559 33.915178-33.414498 82.686931-32.073208 113.381989 4.09247 9.124866 10.818372 19.419009 16.96066 33.213816 18.80263 19.17942 2.512615 38.245189 4.183595 57.719487 3.158686 19.23471-1.023885 38.475563-1.640264 57.773754-2.164493C845.558289 168.415825 691.419521 62.895228 512.248804 62.895228c-247.58571 0-448.28976 201.094149-448.289759 449.12013 0 248.023933 200.704049 449.089414 448.289759 449.089414 247.639976 0 448.327643-201.065481 448.327643-449.089414 0-63.036524-13.038156-122.945078-36.427792-177.383013-6.19553 0.316381-12.399251 0.553922-18.595805 0.962452z" fill="#1296db" p-id="6935"></path></svg>